<svg width="21" height="20" viewBox="0 0 21 20" fill="none" xmlns="http://www.w3.org/2000/svg">
<path fill-rule="evenodd" clip-rule="evenodd" d="M10.4738 3.71209C10.8399 3.34597 11.4335 3.34597 11.7996 3.71209L17.4246 9.33709C17.7907 9.7032 17.7907 10.2968 17.4246 10.6629L11.7996 16.2879C11.4335 16.654 10.8399 16.654 10.4738 16.2879C10.1077 15.9218 10.1077 15.3282 10.4738 14.9621L15.4359 10L10.4738 5.03791C10.1077 4.6718 10.1077 4.0782 10.4738 3.71209Z" fill="#333541"/>
<path fill-rule="evenodd" clip-rule="evenodd" d="M3.63672 10C3.63672 9.48223 4.05645 9.0625 4.57422 9.0625H15.9805C16.4982 9.0625 16.918 9.48223 16.918 10C16.918 10.5178 16.4982 10.9375 15.9805 10.9375H4.57422C4.05645 10.9375 3.63672 10.5178 3.63672 10Z" fill="#333541"/>
</svg>
