<svg width="28" height="28" viewBox="0 0 28 28" fill="none" xmlns="http://www.w3.org/2000/svg">
<path d="M23.625 9.625H17.5V3.5C17.5 2.80381 17.2234 2.13613 16.7312 1.64384C16.2389 1.15156 15.5712 0.875 14.875 0.875H4.375C3.67881 0.875 3.01113 1.15156 2.51884 1.64384C2.02656 2.13613 1.75 2.80381 1.75 3.5V26.25C1.75 26.4821 1.84219 26.7046 2.00628 26.8687C2.17038 27.0328 2.39294 27.125 2.625 27.125H8.3125C8.42853 27.125 8.53981 27.0789 8.62186 26.9969C8.70391 26.9148 8.75 26.8035 8.75 26.6875V22.7746C8.75 22.3038 9.11203 21.8996 9.58289 21.8761C9.7012 21.8704 9.81943 21.8888 9.93043 21.9301C10.0414 21.9715 10.1429 22.0349 10.2286 22.1166C10.3144 22.1983 10.3826 22.2966 10.4293 22.4055C10.4759 22.5143 10.5 22.6316 10.5 22.75V26.6875C10.5 26.8035 10.5461 26.9148 10.6281 26.9969C10.7102 27.0789 10.8215 27.125 10.9375 27.125H25.375C25.6071 27.125 25.8296 27.0328 25.9937 26.8687C26.1578 26.7046 26.25 26.4821 26.25 26.25V12.25C26.25 11.5538 25.9734 10.8861 25.4812 10.3938C24.9889 9.90156 24.3212 9.625 23.625 9.625ZM5.36375 23.6179C5.18253 23.6416 4.99844 23.608 4.83731 23.5217C4.67619 23.4354 4.54611 23.3009 4.46535 23.1369C4.38459 22.973 4.35719 22.7879 4.387 22.6076C4.41681 22.4272 4.50233 22.2608 4.63156 22.1316C4.76079 22.0023 4.92725 21.9168 5.10756 21.887C5.28788 21.8572 5.473 21.8846 5.63695 21.9654C5.8009 22.0461 5.93544 22.1762 6.0217 22.3373C6.10795 22.4984 6.14159 22.6825 6.11789 22.8637C6.09288 23.055 6.00538 23.2326 5.869 23.369C5.73262 23.5054 5.55499 23.5929 5.36375 23.6179ZM5.36375 19.2429C5.18253 19.2666 4.99844 19.233 4.83731 19.1467C4.67619 19.0604 4.54611 18.9259 4.46535 18.7619C4.38459 18.598 4.35719 18.4129 4.387 18.2326C4.41681 18.0522 4.50233 17.8858 4.63156 17.7566C4.76079 17.6273 4.92725 17.5418 5.10756 17.512C5.28788 17.4822 5.473 17.5096 5.63695 17.5904C5.8009 17.6711 5.93544 17.8012 6.0217 17.9623C6.10795 18.1234 6.14159 18.3075 6.11789 18.4887C6.09288 18.68 6.00538 18.8576 5.869 18.994C5.73262 19.1304 5.55499 19.2179 5.36375 19.2429ZM5.36375 14.8679C5.18253 14.8916 4.99844 14.858 4.83731 14.7717C4.67619 14.6854 4.54611 14.5509 4.46535 14.3869C4.38459 14.223 4.35719 14.0379 4.387 13.8576C4.41681 13.6772 4.50233 13.5108 4.63156 13.3816C4.76079 13.2523 4.92725 13.1668 5.10756 13.137C5.28788 13.1072 5.473 13.1346 5.63695 13.2154C5.8009 13.2961 5.93544 13.4262 6.0217 13.5873C6.10795 13.7484 6.14159 13.9325 6.11789 14.1137C6.09288 14.305 6.00538 14.4826 5.869 14.619C5.73262 14.7554 5.55499 14.8429 5.36375 14.8679ZM5.36375 10.4929C5.18253 10.5166 4.99844 10.483 4.83731 10.3967C4.67619 10.3104 4.54611 10.1759 4.46535 10.0119C4.38459 9.848 4.35719 9.66288 4.387 9.48256C4.41681 9.30225 4.50233 9.13579 4.63156 9.00656C4.76079 8.87733 4.92725 8.79181 5.10756 8.762C5.28788 8.73219 5.473 8.75959 5.63695 8.84035C5.8009 8.92111 5.93544 9.05119 6.0217 9.21231C6.10795 9.37344 6.14159 9.55753 6.11789 9.73875C6.09288 9.92999 6.00538 10.1076 5.869 10.244C5.73262 10.3804 5.55499 10.4679 5.36375 10.4929ZM5.36375 6.11789C5.18253 6.14159 4.99844 6.10795 4.83731 6.0217C4.67619 5.93544 4.54611 5.8009 4.46535 5.63695C4.38459 5.473 4.35719 5.28788 4.387 5.10756C4.41681 4.92725 4.50233 4.76079 4.63156 4.63156C4.76079 4.50233 4.92725 4.41681 5.10756 4.387C5.28788 4.35719 5.473 4.38459 5.63695 4.46535C5.8009 4.54611 5.93544 4.67619 6.0217 4.83731C6.10795 4.99844 6.14159 5.18253 6.11789 5.36375C6.09288 5.55499 6.00538 5.73262 5.869 5.869C5.73262 6.00538 5.55499 6.09288 5.36375 6.11789ZM9.73875 19.2429C9.55753 19.2666 9.37344 19.233 9.21231 19.1467C9.05119 19.0604 8.92111 18.9259 8.84035 18.7619C8.75959 18.598 8.73219 18.4129 8.762 18.2326C8.79181 18.0522 8.87733 17.8858 9.00656 17.7566C9.13579 17.6273 9.30225 17.5418 9.48256 17.512C9.66288 17.4822 9.848 17.5096 10.0119 17.5904C10.1759 17.6711 10.3104 17.8012 10.3967 17.9623C10.483 18.1234 10.5166 18.3075 10.4929 18.4887C10.4679 18.68 10.3804 18.8576 10.244 18.994C10.1076 19.1304 9.92999 19.2179 9.73875 19.2429ZM9.73875 14.8679C9.55753 14.8916 9.37344 14.858 9.21231 14.7717C9.05119 14.6854 8.92111 14.5509 8.84035 14.3869C8.75959 14.223 8.73219 14.0379 8.762 13.8576C8.79181 13.6772 8.87733 13.5108 9.00656 13.3816C9.13579 13.2523 9.30225 13.1668 9.48256 13.137C9.66288 13.1072 9.848 13.1346 10.0119 13.2154C10.1759 13.2961 10.3104 13.4262 10.3967 13.5873C10.483 13.7484 10.5166 13.9325 10.4929 14.1137C10.4679 14.305 10.3804 14.4826 10.244 14.619C10.1076 14.7554 9.92999 14.8429 9.73875 14.8679ZM9.73875 10.4929C9.55753 10.5166 9.37344 10.483 9.21231 10.3967C9.05119 10.3104 8.92111 10.1759 8.84035 10.0119C8.75959 9.848 8.73219 9.66288 8.762 9.48256C8.79181 9.30225 8.87733 9.13579 9.00656 9.00656C9.13579 8.87733 9.30225 8.79181 9.48256 8.762C9.66288 8.73219 9.848 8.75959 10.0119 8.84035C10.1759 8.92111 10.3104 9.05119 10.3967 9.21231C10.483 9.37344 10.5166 9.55753 10.4929 9.73875C10.4679 9.92999 10.3804 10.1076 10.244 10.244C10.1076 10.3804 9.92999 10.4679 9.73875 10.4929ZM9.73875 6.11789C9.55753 6.14159 9.37344 6.10795 9.21231 6.0217C9.05119 5.93544 8.92111 5.8009 8.84035 5.63695C8.75959 5.473 8.73219 5.28788 8.762 5.10756C8.79181 4.92725 8.87733 4.76079 9.00656 4.63156C9.13579 4.50233 9.30225 4.41681 9.48256 4.387C9.66288 4.35719 9.848 4.38459 10.0119 4.46535C10.1759 4.54611 10.3104 4.67619 10.3967 4.83731C10.483 4.99844 10.5166 5.18253 10.4929 5.36375C10.4679 5.55499 10.3804 5.73262 10.244 5.869C10.1076 6.00538 9.92999 6.09288 9.73875 6.11789ZM14.1137 23.6179C13.9325 23.6416 13.7484 23.608 13.5873 23.5217C13.4262 23.4354 13.2961 23.3009 13.2154 23.1369C13.1346 22.973 13.1072 22.7879 13.137 22.6076C13.1668 22.4272 13.2523 22.2608 13.3816 22.1316C13.5108 22.0023 13.6772 21.9168 13.8576 21.887C14.0379 21.8572 14.223 21.8846 14.3869 21.9654C14.5509 22.0461 14.6854 22.1762 14.7717 22.3373C14.858 22.4984 14.8916 22.6825 14.8679 22.8637C14.8429 23.055 14.7554 23.2326 14.619 23.369C14.4826 23.5054 14.305 23.5929 14.1137 23.6179ZM14.1137 19.2429C13.9325 19.2666 13.7484 19.233 13.5873 19.1467C13.4262 19.0604 13.2961 18.9259 13.2154 18.7619C13.1346 18.598 13.1072 18.4129 13.137 18.2326C13.1668 18.0522 13.2523 17.8858 13.3816 17.7566C13.5108 17.6273 13.6772 17.5418 13.8576 17.512C14.0379 17.4822 14.223 17.5096 14.3869 17.5904C14.5509 17.6711 14.6854 17.8012 14.7717 17.9623C14.858 18.1234 14.8916 18.3075 14.8679 18.4887C14.8429 18.68 14.7554 18.8576 14.619 18.994C14.4826 19.1304 14.305 19.2179 14.1137 19.2429ZM14.1137 14.8679C13.9325 14.8916 13.7484 14.858 13.5873 14.7717C13.4262 14.6854 13.2961 14.5509 13.2154 14.3869C13.1346 14.223 13.1072 14.0379 13.137 13.8576C13.1668 13.6772 13.2523 13.5108 13.3816 13.3816C13.5108 13.2523 13.6772 13.1668 13.8576 13.137C14.0379 13.1072 14.223 13.1346 14.3869 13.2154C14.5509 13.2961 14.6854 13.4262 14.7717 13.5873C14.858 13.7484 14.8916 13.9325 14.8679 14.1137C14.8429 14.305 14.7554 14.4826 14.619 14.619C14.4826 14.7554 14.305 14.8429 14.1137 14.8679ZM14.1137 10.4929C13.9325 10.5166 13.7484 10.483 13.5873 10.3967C13.4262 10.3104 13.2961 10.1759 13.2154 10.0119C13.1346 9.848 13.1072 9.66288 13.137 9.48256C13.1668 9.30225 13.2523 9.13579 13.3816 9.00656C13.5108 8.87733 13.6772 8.79181 13.8576 8.762C14.0379 8.73219 14.223 8.75959 14.3869 8.84035C14.5509 8.92111 14.6854 9.05119 14.7717 9.21231C14.858 9.37344 14.8916 9.55753 14.8679 9.73875C14.8429 9.92999 14.7554 10.1076 14.619 10.244C14.4826 10.3804 14.305 10.4679 14.1137 10.4929ZM14.1137 6.11789C13.9325 6.14159 13.7484 6.10795 13.5873 6.0217C13.4262 5.93544 13.2961 5.8009 13.2154 5.63695C13.1346 5.473 13.1072 5.28788 13.137 5.10756C13.1668 4.92725 13.2523 4.76079 13.3816 4.63156C13.5108 4.50233 13.6772 4.41681 13.8576 4.387C14.0379 4.35719 14.223 4.38459 14.3869 4.46535C14.5509 4.54611 14.6854 4.67619 14.7717 4.83731C14.858 4.99844 14.8916 5.18253 14.8679 5.36375C14.8429 5.55499 14.7554 5.73262 14.619 5.869C14.4826 6.00538 14.305 6.09288 14.1137 6.11789ZM24.2812 25.375H17.5V11.375H23.625C23.8571 11.375 24.0796 11.4672 24.2437 11.6313C24.4078 11.7954 24.5 12.0179 24.5 12.25V25.1562C24.5 25.2143 24.477 25.2699 24.4359 25.3109C24.3949 25.352 24.3393 25.375 24.2812 25.375Z" fill="#333541"/>
<path d="M21.875 21.875C21.7019 21.875 21.5328 21.9263 21.3889 22.0225C21.245 22.1186 21.1328 22.2553 21.0666 22.4152C21.0004 22.575 20.9831 22.751 21.0168 22.9207C21.0506 23.0904 21.1339 23.2464 21.2563 23.3687C21.3787 23.4911 21.5346 23.5744 21.7043 23.6082C21.874 23.642 22.05 23.6246 22.2099 23.5584C22.3697 23.4922 22.5064 23.38 22.6025 23.2361C22.6987 23.0922 22.75 22.9231 22.75 22.75C22.75 22.5179 22.6578 22.2954 22.4937 22.1313C22.3296 21.9672 22.1071 21.875 21.875 21.875Z" fill="#333541"/>
<path d="M21.875 17.5C21.7019 17.5 21.5328 17.5513 21.3889 17.6475C21.245 17.7436 21.1328 17.8803 21.0666 18.0402C21.0004 18.2 20.9831 18.376 21.0168 18.5457C21.0506 18.7154 21.1339 18.8714 21.2563 18.9937C21.3787 19.1161 21.5346 19.1994 21.7043 19.2332C21.874 19.267 22.05 19.2496 22.2099 19.1834C22.3697 19.1172 22.5064 19.005 22.6025 18.8611C22.6987 18.7172 22.75 18.5481 22.75 18.375C22.75 18.1429 22.6578 17.9204 22.4937 17.7563C22.3296 17.5922 22.1071 17.5 21.875 17.5Z" fill="#333541"/>
<path d="M21.875 13.125C21.7019 13.125 21.5328 13.1763 21.3889 13.2725C21.245 13.3686 21.1328 13.5053 21.0666 13.6652C21.0004 13.825 20.9831 14.001 21.0168 14.1707C21.0506 14.3404 21.1339 14.4964 21.2563 14.6187C21.3787 14.7411 21.5346 14.8244 21.7043 14.8582C21.874 14.892 22.05 14.8746 22.2099 14.8084C22.3697 14.7422 22.5064 14.63 22.6025 14.4861C22.6987 14.3422 22.75 14.1731 22.75 14C22.75 13.7679 22.6578 13.5454 22.4937 13.3813C22.3296 13.2172 22.1071 13.125 21.875 13.125Z" fill="#333541"/>
<path d="M18.375 21.875C18.2019 21.875 18.0328 21.9263 17.8889 22.0225C17.745 22.1186 17.6328 22.2553 17.5666 22.4152C17.5004 22.575 17.4831 22.751 17.5168 22.9207C17.5506 23.0904 17.6339 23.2464 17.7563 23.3687C17.8787 23.4911 18.0346 23.5744 18.2043 23.6082C18.374 23.642 18.55 23.6246 18.7099 23.5584C18.8697 23.4922 19.0064 23.38 19.1025 23.2361C19.1987 23.0922 19.25 22.9231 19.25 22.75C19.25 22.5179 19.1578 22.2954 18.9937 22.1313C18.8296 21.9672 18.6071 21.875 18.375 21.875Z" fill="#333541"/>
<path d="M18.375 17.5C18.2019 17.5 18.0328 17.5513 17.8889 17.6475C17.745 17.7436 17.6328 17.8803 17.5666 18.0402C17.5004 18.2 17.4831 18.376 17.5168 18.5457C17.5506 18.7154 17.6339 18.8714 17.7563 18.9937C17.8787 19.1161 18.0346 19.1994 18.2043 19.2332C18.374 19.267 18.55 19.2496 18.7099 19.1834C18.8697 19.1172 19.0064 19.005 19.1025 18.8611C19.1987 18.7172 19.25 18.5481 19.25 18.375C19.25 18.1429 19.1578 17.9204 18.9937 17.7563C18.8296 17.5922 18.6071 17.5 18.375 17.5Z" fill="#333541"/>
<path d="M18.375 13.125C18.2019 13.125 18.0328 13.1763 17.8889 13.2725C17.745 13.3686 17.6328 13.5053 17.5666 13.6652C17.5004 13.825 17.4831 14.001 17.5168 14.1707C17.5506 14.3404 17.6339 14.4964 17.7563 14.6187C17.8787 14.7411 18.0346 14.8244 18.2043 14.8582C18.374 14.892 18.55 14.8746 18.7099 14.8084C18.8697 14.7422 19.0064 14.63 19.1025 14.4861C19.1987 14.3422 19.25 14.1731 19.25 14C19.25 13.7679 19.1578 13.5454 18.9937 13.3813C18.8296 13.2172 18.6071 13.125 18.375 13.125Z" fill="#333541"/>
</svg>
