<svg width="29" height="28" viewBox="0 0 29 28" fill="none" xmlns="http://www.w3.org/2000/svg">
<path d="M2.08203 20.5625C2.08203 21.3747 2.40469 22.1537 2.97902 22.728C3.55335 23.3023 4.33231 23.625 5.14453 23.625H23.5195C24.3318 23.625 25.1107 23.3023 25.685 22.728C26.2594 22.1537 26.582 21.3747 26.582 20.5625V12.1406H2.08203V20.5625ZM5.69141 16.4062C5.69141 15.9711 5.86426 15.5538 6.17193 15.2462C6.47961 14.9385 6.89691 14.7656 7.33203 14.7656H9.95703C10.3922 14.7656 10.8095 14.9385 11.1171 15.2462C11.4248 15.5538 11.5977 15.9711 11.5977 16.4062V17.5C11.5977 17.9351 11.4248 18.3524 11.1171 18.6601C10.8095 18.9678 10.3922 19.1406 9.95703 19.1406H7.33203C6.89691 19.1406 6.47961 18.9678 6.17193 18.6601C5.86426 18.3524 5.69141 17.9351 5.69141 17.5V16.4062Z" fill="#333541"/>
<path d="M23.5195 4.375H5.14453C4.33231 4.375 3.55335 4.69766 2.97902 5.27199C2.40469 5.84632 2.08203 6.62527 2.08203 7.4375V8.85938H26.582V7.4375C26.582 6.62527 26.2594 5.84632 25.685 5.27199C25.1107 4.69766 24.3318 4.375 23.5195 4.375Z" fill="#333541"/>
</svg>
