<svg width="20" height="20" viewBox="0 0 20 20" fill="none" xmlns="http://www.w3.org/2000/svg">
<path d="M19.0984 9.99844C19.0984 15.0242 15.0242 19.0984 9.99844 19.0984C4.97265 19.0984 0.898438 15.0242 0.898438 9.99844C0.898438 4.97265 4.97265 0.898438 9.99844 0.898438C15.0242 0.898438 19.0984 4.97265 19.0984 9.99844ZM9.99844 16.4984C10.9373 16.4984 11.6984 15.7373 11.6984 14.7984C11.6984 13.8596 10.9373 13.0984 9.99844 13.0984C9.05955 13.0984 8.29844 13.8596 8.29844 14.7984C8.29844 15.7373 9.05955 16.4984 9.99844 16.4984ZM9.99844 3.49844C9.05955 3.49844 8.29844 4.25955 8.29844 5.19844V9.99844C8.29844 10.9373 9.05955 11.6984 9.99844 11.6984C10.9373 11.6984 11.6984 10.9373 11.6984 9.99844V5.19844C11.6984 4.25955 10.9373 3.49844 9.99844 3.49844Z" fill="#AA461D" stroke="#AA461D"/>
</svg>
