<svg xmlns="http://www.w3.org/2000/svg" width="140" height="24" fill="none"><path fill="#000" fill-opacity=".1" d="M-11739-3427h60195v-2h-60195zm60196 1v26620h2V-3426zm-1 26621h-60195v2h60195zm-60196-1V-3426h-2v26620zm1 1c-.6 0-1-.4-1-1h-2c0 1.7 1.3 3 3 3zm60196-1c0 .6-.4 1-1 1v2c1.7 0 3-1.3 3-3zm-1-26621c.6 0 1 .45 1 1h2c0-1.66-1.3-3-3-3zm-60195-2c-1.7 0-3 1.34-3 3h2c0-.55.4-1 1-1z"/><g clip-path="url(#a)"><path fill="#878787" fill-opacity=".25" d="M1392 51H-48v2h1440z" mask="url(#b)"/><g clip-path="url(#c)"><path fill="#E21D38" d="M74.611.609H69.42V20.89h5.191zM76.748.614h15.685v4.145H81.939V8.48h10.464v4.06H81.939v4.205h10.55v4.145H76.747zM94.436.614h5.216V16.49h9.538v4.401H94.436zM111.136 4.729h-5.81V.614h16.837v4.115h-5.84V20.89h-5.187zM127.37 14.166c.061 2.308 1.354 3.52 3.839 3.52 2.173 0 3.325-.759 3.325-2.011a1.55 1.55 0 0 0-.785-1.439c-1.212-.619-3.521-1.006-6.489-2.198-2.968-1.193-4.457-3.104-4.457-5.614 0-3.808 3.018-6.349 8.094-6.349 4.935 0 7.953 2.651 7.953 6.686h-4.88c-.221-1.892-1.323-2.767-3.41-2.767-1.751 0-2.822.82-2.822 1.836 0 1.51 1.579 1.831 4.768 2.878 2.34.76 4.025 1.297 5.031 2.087a5.3 5.3 0 0 1 2.012 4.286c0 3.949-3.129 6.404-8.828 6.404-5.277 0-8.009-2.4-8.321-7.304z"/><path fill="#417EC0" d="M21.198 14.875a7.66 7.66 0 0 0-2.47-2.254 6.64 6.64 0 0 0-3.144-.694 2.44 2.44 0 0 1-3.255 1.233c-1.429 1.86-1.288 3.41-1.278 3.52.086 2.395 2.395 7.325 11.65 7.34 0-.196.79-6.112-1.509-9.125"/><path fill="#F58320" d="M13.704 2.364C11.128-.15 6.374-1.07.268 1.644c0 .066 1.836 7.818 10.03 9.056.181 0 .393.03.619.055a2.425 2.425 0 0 1 2.42-2.228 2.6 2.6 0 0 1 .81.13c2.379-3.596-.156-6.031-.443-6.293"/><path fill="#5ABA47" d="M12.329 13.16a2.43 2.43 0 0 1-1.399-2.214v-.196a10 10 0 0 0-1.257-.07c-2.142.032-4.22.736-5.941 2.012-3.436 2.686-3.738 7.093-3.738 7.093.186 0 6.263.835 9.955-2.823a7.2 7.2 0 0 0 1.006-1.262l.257-.413a6.3 6.3 0 0 1 1.117-2.128"/><path fill="#333F48" d="M52.322 5.66a5.2 5.2 0 0 0-4.215 1.966v-.588a1.39 1.39 0 0 0-1.384-1.379 1.39 1.39 0 0 0-1.383 1.379v15.558A1.414 1.414 0 0 0 46.748 24a1.41 1.41 0 0 0 1.404-1.404v-5.478a5.65 5.65 0 0 0 4.235 1.827c3.144 0 6.213-2.335 6.213-6.666-.015-4.411-3.285-6.62-6.278-6.62m-.307 10.724c-1.926 0-3.878-1.393-3.878-4.155s1.926-4.06 3.853-4.06 3.803 1.318 3.803 4.085-1.846 4.13-3.778 4.13M36.224 18.945a5.2 5.2 0 0 0 4.23-1.973v.594a1.384 1.384 0 0 0 2.767 0V2.007A1.41 1.41 0 0 0 41.813.61a1.41 1.41 0 0 0-1.404 1.398v5.478a5.65 5.65 0 0 0-4.236-1.826c-3.144 0-6.212 2.334-6.212 6.67s3.27 6.616 6.263 6.616m.312-10.725c1.926 0 3.878 1.393 3.878 4.16 0 2.766-1.932 4.054-3.878 4.054s-3.803-1.318-3.803-4.08 1.871-4.134 3.803-4.134M26.907 0a2.012 2.012 0 1 0 0 4.024 2.012 2.012 0 0 0 0-4.024M26.907 5.66a1.41 1.41 0 0 0-1.403 1.403V17.59a1.41 1.41 0 0 0 1.403 1.354 1.41 1.41 0 0 0 1.404-1.354V7.063a1.414 1.414 0 0 0-1.404-1.404"/></g></g><defs><clipPath id="a"><path fill="#fff" d="M-48-28h1440V996H-48z"/></clipPath><clipPath id="c"><path fill="#fff" d="M0 0h139.528v24H0z"/></clipPath></defs></svg>