<svg width="94" height="16" viewBox="0 0 94 16" fill="none" xmlns="http://www.w3.org/2000/svg">
<g clip-path="url(#clip0_12594_143563)">
<path d="M49.7405 0.405762H46.2795V13.9275H49.7405V0.405762Z" fill="#E31837"/>
<path d="M51.1658 0.40918H61.6223V3.17254H54.6267V5.6542H61.6022V8.36055H54.6267V11.1642H61.6592V13.9275H51.1658V0.40918Z" fill="#E31837"/>
<path d="M62.957 0.40918H66.4347V10.9931H72.7931V13.9275H62.957V0.40918Z" fill="#E31837"/>
<path d="M74.0909 3.15242H70.2175V0.40918H81.442V3.15242H77.5485V13.9275H74.0909V3.15242Z" fill="#E31837"/>
<path d="M84.913 9.44371C84.9532 10.983 85.8151 11.7912 87.4718 11.7912C88.9205 11.7912 89.6885 11.2848 89.6885 10.4498C89.7001 10.2569 89.6571 10.0647 89.5646 9.89511C89.4721 9.7255 89.3337 9.58534 89.1653 9.49066C88.3571 9.07817 86.8178 8.81995 84.8392 8.02514C82.8606 7.23034 81.8679 5.95597 81.8679 4.28253C81.8679 1.74386 83.88 0.050293 87.2638 0.050293C90.5537 0.050293 92.5659 1.81764 92.5659 4.50722H89.3129C89.1653 3.24627 88.4309 2.66274 87.0391 2.66274C85.8721 2.66274 85.1578 3.20938 85.1578 3.88681C85.1578 4.89288 86.2108 5.10752 88.337 5.80506C89.8964 6.31146 91.0199 6.67029 91.6906 7.1968C92.1205 7.53637 92.4655 7.97131 92.6983 8.46722C92.9311 8.96312 93.0454 9.50639 93.032 10.0541C93.032 12.6866 90.9461 14.3232 87.1465 14.3232C83.6285 14.3232 81.8075 12.7235 81.5996 9.45377L84.913 9.44371Z" fill="#E31837"/>
<path d="M14.132 9.9166C13.7005 9.3006 13.1382 8.78756 12.4854 8.41419C11.8353 8.0903 11.1154 7.93137 10.3894 7.95139C10.3024 8.14906 10.1768 8.32741 10.0202 8.47605C9.86347 8.62469 9.67875 8.74064 9.47677 8.81712C9.27479 8.8936 9.0596 8.92909 8.84375 8.92152C8.62791 8.91395 8.41574 8.86347 8.21962 8.77302C7.2672 10.0139 7.3611 11.0468 7.3678 11.1205C7.42481 12.7168 8.96411 16.0034 15.1347 16.0134C15.1347 15.8826 15.6612 11.9388 14.1286 9.93001" fill="#417EC0"/>
<path d="M9.13519 1.57613C7.41815 -0.100664 4.249 -0.714372 0.177734 1.09657C0.177734 1.14017 1.4018 6.30806 6.8648 7.13304C6.98553 7.13304 7.12638 7.15316 7.27729 7.16993C7.31018 6.76486 7.49443 6.38704 7.79337 6.11173C8.0923 5.83641 8.48397 5.6838 8.89037 5.68429C9.07383 5.6846 9.25607 5.71403 9.4303 5.77148C11.0166 3.37366 9.32634 1.75052 9.13519 1.57613Z" fill="#F58320"/>
<path d="M8.21959 8.77303C7.93978 8.64142 7.70338 8.43263 7.53822 8.17122C7.37306 7.90981 7.286 7.60666 7.28729 7.29744C7.28729 7.2572 7.28729 7.21025 7.28729 7.16665C7.00916 7.13259 6.72909 7.1169 6.4489 7.1197C5.02086 7.14141 3.63561 7.61059 2.4883 8.46114C0.197798 10.252 -0.00341797 13.1897 -0.00341797 13.1897C0.120665 13.1897 4.17181 13.7464 6.63334 11.3083C6.88765 11.0537 7.11262 10.7713 7.30406 10.4666L7.4751 10.1916C7.63061 9.67562 7.88331 9.19413 8.21959 8.77303Z" fill="#5ABA47"/>
<path d="M34.8806 3.77283C34.3426 3.75854 33.8086 3.86957 33.3209 4.09715C32.8331 4.32472 32.405 4.6626 32.0703 5.08408V4.69171C32.0685 4.44798 31.9707 4.21477 31.798 4.04273C31.6254 3.87069 31.3918 3.77371 31.1481 3.77283C30.9043 3.77371 30.6708 3.87069 30.4981 4.04273C30.3254 4.21477 30.2276 4.44798 30.2258 4.69171V15.0644C30.2276 15.3126 30.3272 15.55 30.503 15.7252C30.6788 15.9004 30.9166 15.9992 31.1648 16C31.4127 15.9992 31.6502 15.9003 31.8255 15.725C32.0007 15.5497 32.0996 15.3123 32.1005 15.0644V11.4123C32.4589 11.8026 32.8957 12.1128 33.3823 12.3226C33.8689 12.5324 34.3944 12.637 34.9242 12.6297C37.0202 12.6297 39.0659 11.0736 39.0659 8.18616C39.0558 5.24506 36.876 3.77283 34.8806 3.77283ZM34.676 10.9227C33.3916 10.9227 32.0904 9.99375 32.0904 8.15263C32.0904 6.3115 33.3749 5.44627 34.6593 5.44627C35.9437 5.44627 37.1946 6.32492 37.1946 8.16939C37.1946 10.0139 35.9638 10.9227 34.676 10.9227Z" fill="#333F48"/>
<path d="M24.1493 12.6296C24.6893 12.6451 25.2255 12.5343 25.7151 12.3061C26.2047 12.0778 26.6343 11.7385 26.9697 11.315V11.7107C26.9706 11.9547 27.0682 12.1885 27.241 12.3607C27.4139 12.5329 27.6479 12.6296 27.892 12.6296C28.136 12.6296 28.37 12.5329 28.5429 12.3607C28.7158 12.1885 28.8133 11.9547 28.8142 11.7107V1.33806C28.8124 1.09019 28.7127 0.853065 28.5368 0.678415C28.3609 0.503765 28.1231 0.405755 27.8752 0.405762C27.6279 0.406639 27.3909 0.505038 27.2157 0.679593C27.0406 0.854148 26.9413 1.09076 26.9395 1.33806V4.99013C26.5811 4.59982 26.1443 4.28962 25.6577 4.07983C25.1711 3.87005 24.6457 3.76541 24.1158 3.77277C22.0198 3.77277 19.9741 5.32884 19.9741 8.21964C19.9741 11.1104 22.154 12.6296 24.1493 12.6296ZM24.3573 5.47975C25.6417 5.47975 26.9429 6.4087 26.9429 8.25317C26.9429 10.0976 25.6551 10.9562 24.3573 10.9562C23.0594 10.9562 21.822 10.0775 21.822 8.2364C21.822 6.39528 23.0695 5.47975 24.3573 5.47975Z" fill="#333F48"/>
<path d="M17.9384 0C17.5826 0 17.2414 0.14133 16.9898 0.392898C16.7383 0.644467 16.5969 0.985666 16.5969 1.34144C16.5969 1.69721 16.7383 2.03841 16.9898 2.28998C17.2414 2.54155 17.5826 2.68288 17.9384 2.68288C18.2941 2.68288 18.6353 2.54155 18.8869 2.28998C19.1385 2.03841 19.2798 1.69721 19.2798 1.34144C19.2798 0.985666 19.1385 0.644467 18.8869 0.392898C18.6353 0.14133 18.2941 0 17.9384 0Z" fill="#333F48"/>
<path d="M17.9383 3.77283C17.6905 3.77371 17.453 3.87257 17.2777 4.04785C17.1024 4.22313 17.0036 4.4606 17.0027 4.70848V11.7276C17.0122 11.9696 17.1149 12.1985 17.2892 12.3666C17.4636 12.5348 17.6961 12.629 17.9383 12.6297C18.1805 12.629 18.4131 12.5348 18.5875 12.3666C18.7618 12.1985 18.8645 11.9696 18.874 11.7276V11.6974V4.70848C18.8722 4.46087 18.7731 4.2239 18.598 4.04881C18.4229 3.87372 18.1859 3.77458 17.9383 3.77283Z" fill="#333F48"/>
</g>
<defs>
<clipPath id="clip0_12594_143563">
<rect width="93.0186" height="16" fill="white"/>
</clipPath>
</defs>
</svg>
