<svg width="24" height="24" viewBox="0 0 24 24" fill="none" xmlns="http://www.w3.org/2000/svg">
<path d="M3.75 19.5C3.75 20.2957 4.06607 21.0587 4.62868 21.6214C5.19129 22.184 5.95435 22.5 6.75 22.5H11.0625C11.1122 22.5 11.1599 22.4803 11.1951 22.4451C11.2302 22.41 11.25 22.3623 11.25 22.3125V13.6875C11.25 13.6378 11.2302 13.5901 11.1951 13.5549C11.1599 13.5198 11.1122 13.5 11.0625 13.5H4.125C4.02554 13.5 3.93016 13.5395 3.85984 13.6099C3.78951 13.6802 3.75 13.7756 3.75 13.875V19.5Z" fill="#000070"/>
<path d="M11.25 11.8123V6.74983H12.75V11.8123C12.75 11.8621 12.7698 11.9097 12.8049 11.9449C12.8401 11.9801 12.8878 11.9998 12.9375 11.9998H19.5C19.7555 11.9998 20.0091 11.9562 20.25 11.8709C20.6883 11.7153 21.0677 11.4279 21.3363 11.0482C21.6048 10.6684 21.7493 10.2149 21.75 9.74983V8.99983C21.75 8.40309 21.5129 7.83079 21.091 7.40884C20.669 6.98688 20.0967 6.74983 19.5 6.74983H17.5997C17.5834 6.74957 17.5674 6.74504 17.5533 6.73671C17.5393 6.72837 17.5277 6.71652 17.5196 6.70231C17.5116 6.6881 17.5074 6.67204 17.5074 6.6557C17.5075 6.63937 17.5118 6.62334 17.52 6.6092C17.954 5.87649 18.0949 5.0068 17.9146 4.17453C17.7343 3.34225 17.246 2.60891 16.5476 2.12156C15.8492 1.63421 14.9925 1.42887 14.1491 1.54672C13.3057 1.66457 12.538 2.0969 12 2.75701C11.462 2.0969 10.6943 1.66457 9.85092 1.54672C9.00752 1.42887 8.15075 1.63421 7.4524 2.12156C6.75405 2.60891 6.26574 3.34225 6.0854 4.17453C5.90506 5.0068 6.04602 5.87649 6.48 6.6092C6.48817 6.62334 6.4925 6.63937 6.49257 6.6557C6.49263 6.67204 6.48843 6.6881 6.48038 6.70231C6.47233 6.71652 6.46071 6.72837 6.44666 6.73671C6.43262 6.74504 6.41664 6.74957 6.40031 6.74983H4.5C3.90326 6.74983 3.33097 6.98688 2.90901 7.40884C2.48705 7.83079 2.25 8.40309 2.25 8.99983V9.74983C2.25066 10.2149 2.39517 10.6684 2.66372 11.0482C2.93227 11.4279 3.3117 11.7153 3.75 11.8709C3.99085 11.9562 4.24449 11.9998 4.5 11.9998H11.0625C11.1122 11.9998 11.1599 11.9801 11.1951 11.9449C11.2302 11.9097 11.25 11.8621 11.25 11.8123ZM12.75 4.87483C12.75 4.50399 12.86 4.14147 13.066 3.83313C13.272 3.52479 13.5649 3.28447 13.9075 3.14255C14.2501 3.00064 14.6271 2.96351 14.9908 3.03585C15.3545 3.1082 15.6886 3.28678 15.9508 3.549C16.213 3.81122 16.3916 4.14532 16.464 4.50903C16.5363 4.87275 16.4992 5.24975 16.3573 5.59236C16.2154 5.93497 15.975 6.2278 15.6667 6.43383C15.3584 6.63986 14.9958 6.74983 14.625 6.74983H12.75V4.87483ZM9.24094 3.00451C9.49781 2.9861 9.75572 3.0208 9.9986 3.10645C10.2415 3.1921 10.4641 3.32687 10.6526 3.50235C10.8411 3.67783 10.9914 3.89025 11.0942 4.12639C11.197 4.36252 11.25 4.61729 11.25 4.87483V6.74983H9.375C8.89017 6.74858 8.42466 6.55958 8.07619 6.22249C7.72771 5.88541 7.52336 5.42644 7.50601 4.94191C7.48867 4.45739 7.65968 3.98498 7.98316 3.62384C8.30664 3.2627 8.75744 3.04089 9.24094 3.00498V3.00451Z" fill="#000070"/>
<path d="M12.9375 22.5H17.25C18.0456 22.5 18.8087 22.184 19.3713 21.6214C19.9339 21.0587 20.25 20.2957 20.25 19.5V13.875C20.25 13.7756 20.2105 13.6802 20.1402 13.6099C20.0698 13.5395 19.9745 13.5 19.875 13.5H12.9375C12.8878 13.5 12.8401 13.5198 12.8049 13.5549C12.7698 13.5901 12.75 13.6378 12.75 13.6875V22.3125C12.75 22.3623 12.7698 22.41 12.8049 22.4451C12.8401 22.4803 12.8878 22.5 12.9375 22.5Z" fill="#000070"/>
</svg>
