<svg width="32" height="32" viewBox="0 0 32 32" fill="none" xmlns="http://www.w3.org/2000/svg">
<path d="M18.666 23.3333L8.66602 13.3333L2.66602 19.3333L12.666 29.3333L18.666 23.3333Z" fill="#FF8300"/>
<path d="M27.2029 3H19.5217C19.2828 2.99983 19.0536 3.0942 18.8842 3.2625L3.52793 18.6188C3.19169 18.9566 3.00293 19.4139 3.00293 19.8906C3.00293 20.3673 3.19169 20.8246 3.52793 21.1625L10.8404 28.475C11.1783 28.8112 11.6356 29 12.1123 29C12.589 29 13.0463 28.8112 13.3842 28.475L28.7342 13.125C28.9025 12.9555 28.9969 12.7263 28.9967 12.4875V4.8C28.9978 4.56383 28.9523 4.32975 28.8626 4.11125C28.773 3.89276 28.641 3.69414 28.4743 3.52685C28.3075 3.35956 28.1094 3.22688 27.8912 3.13646C27.673 3.04605 27.4391 2.99967 27.2029 3Z" stroke="#333541" stroke-width="1.33333" stroke-linecap="round" stroke-linejoin="round"/>
<path d="M24 10C23.6044 10 23.2178 9.8827 22.8889 9.66294C22.56 9.44318 22.3036 9.13082 22.1522 8.76537C22.0009 8.39992 21.9613 7.99778 22.0384 7.60982C22.1156 7.22186 22.3061 6.86549 22.5858 6.58579C22.8655 6.30608 23.2219 6.1156 23.6098 6.03843C23.9978 5.96126 24.3999 6.00087 24.7654 6.15224C25.1308 6.30362 25.4432 6.55996 25.663 6.88886C25.8827 7.21776 26 7.60444 26 8C26 8.53043 25.7893 9.03914 25.4142 9.41421C25.0392 9.78929 24.5304 10 24 10Z" fill="#E31837"/>
</svg>
