<svg width="140" height="24" viewBox="0 0 140 24" fill="none" xmlns="http://www.w3.org/2000/svg">
<g clip-path="url(#clip0_11984_215976)">
<path d="M74.8457 0.609375H69.6543V20.8919H74.8457V0.609375Z" fill="#E21D38"/>
<path d="M76.9824 0.613281H92.6672V4.75832H82.1738V8.48081H92.637V12.5403H82.1738V16.7458H92.7225V20.8908H76.9824V0.613281Z" fill="#E21D38"/>
<path d="M94.6699 0.613281H99.8864V16.4892H109.424V20.8908H94.6699V0.613281Z" fill="#E21D38"/>
<path d="M111.371 4.72814H105.561V0.613281H122.397V4.72814H116.557V20.8908H111.371V4.72814Z" fill="#E21D38"/>
<path d="M127.605 14.1663C127.665 16.4753 128.958 17.6876 131.443 17.6876C133.616 17.6876 134.768 16.928 134.768 15.6754C134.785 15.3861 134.721 15.0978 134.582 14.8434C134.443 14.589 134.236 14.3787 133.983 14.2367C132.771 13.618 130.462 13.2306 127.494 12.0384C124.526 10.8462 123.037 8.93469 123.037 6.42453C123.037 2.61652 126.055 0.0761719 131.131 0.0761719C136.066 0.0761719 139.084 2.72719 139.084 6.76156H134.205C133.983 4.87014 132.882 3.99485 130.794 3.99485C129.043 3.99485 127.972 4.8148 127.972 5.83094C127.972 7.34006 129.552 7.662 132.741 8.70833C135.08 9.46791 136.765 10.0062 137.771 10.7959C138.416 11.3053 138.934 11.9577 139.283 12.7016C139.632 13.4454 139.803 14.2603 139.783 15.0818C139.783 19.0307 136.654 21.4855 130.955 21.4855C125.678 21.4855 122.947 19.086 122.635 14.1814L127.605 14.1663Z" fill="#E21D38"/>
<path d="M21.4319 14.8742C20.7847 13.9502 19.9413 13.1806 18.962 12.6205C17.9868 12.1347 16.9071 11.8963 15.818 11.9264C15.6874 12.2229 15.4992 12.4904 15.2641 12.7133C15.0291 12.9363 14.752 13.1102 14.449 13.2249C14.1461 13.3397 13.8233 13.3929 13.4995 13.3816C13.1758 13.3702 12.8575 13.2945 12.5633 13.1588C11.1347 15.02 11.2755 16.5694 11.2856 16.6801C11.3711 19.0745 13.6801 24.0043 22.936 24.0194C22.936 23.8232 23.7258 17.9075 21.4269 14.8943" fill="#417EC0"/>
<path d="M13.9381 2.36487C11.3626 -0.150325 6.60885 -1.07089 0.501953 1.64553C0.501953 1.71092 2.33805 9.46275 10.5326 10.7002C10.7136 10.7002 10.9249 10.7304 11.1513 10.7556C11.2006 10.148 11.477 9.58124 11.9254 9.16826C12.3738 8.75528 12.9613 8.52637 13.5709 8.5271C13.8461 8.52758 14.1195 8.57172 14.3808 8.65789C16.7602 5.06116 14.2249 2.62645 13.9381 2.36487Z" fill="#F58320"/>
<path d="M12.563 13.1601C12.1433 12.9627 11.7887 12.6495 11.541 12.2574C11.2932 11.8653 11.1626 11.4106 11.1646 10.9468C11.1646 10.8864 11.1646 10.816 11.1646 10.7506C10.7474 10.6995 10.3273 10.676 9.90699 10.6802C7.76493 10.7127 5.68706 11.4165 3.9661 12.6923C0.530339 15.3786 0.228516 19.7852 0.228516 19.7852C0.41464 19.7852 6.49135 20.6202 10.1837 16.9631C10.5651 16.5811 10.9026 16.1576 11.1897 15.7005L11.4463 15.288C11.6796 14.514 12.0586 13.7918 12.563 13.1601Z" fill="#5ABA47"/>
<path d="M52.5564 5.66004C51.7494 5.63861 50.9484 5.80515 50.2168 6.14651C49.4852 6.48787 48.843 6.99469 48.3409 7.62692V7.03836C48.3383 6.67276 48.1915 6.32295 47.9325 6.06489C47.6735 5.80683 47.3232 5.66135 46.9576 5.66004C46.592 5.66135 46.2416 5.80683 45.9826 6.06489C45.7236 6.32295 45.5769 6.67276 45.5742 7.03836V22.5974C45.5769 22.9696 45.7263 23.3259 45.99 23.5886C46.2537 23.8514 46.6104 23.9995 46.9827 24.0009C47.3545 23.9995 47.7108 23.8512 47.9737 23.5883C48.2366 23.3254 48.3849 22.9692 48.3862 22.5974V17.1193C48.9238 17.7047 49.579 18.17 50.309 18.4847C51.0389 18.7994 51.827 18.9563 52.6218 18.9453C55.7658 18.9453 58.8343 16.6112 58.8343 12.28C58.8192 7.86838 55.5495 5.66004 52.5564 5.66004ZM52.2495 16.3848C50.3229 16.3848 48.3711 14.9914 48.3711 12.2297C48.3711 9.46805 50.2978 8.1702 52.2244 8.1702C54.151 8.1702 56.0274 9.48817 56.0274 12.2549C56.0274 15.0216 54.1812 16.3848 52.2495 16.3848Z" fill="#333F48"/>
<path d="M36.4581 18.9452C37.2681 18.9684 38.0723 18.8022 38.8068 18.4598C39.5412 18.1175 40.1856 17.6085 40.6887 16.9732V17.5668C40.69 17.9328 40.8364 18.2834 41.0957 18.5418C41.3549 18.8001 41.706 18.9452 42.0721 18.9452C42.4381 18.9452 42.7892 18.8001 43.0485 18.5418C43.3078 18.2834 43.4541 17.9328 43.4554 17.5668V2.00782C43.4528 1.63601 43.3032 1.28033 43.0393 1.01836C42.7755 0.756381 42.4187 0.609366 42.0469 0.609375C41.676 0.61069 41.3205 0.75829 41.0577 1.02012C40.795 1.28196 40.6461 1.63688 40.6434 2.00782V7.48592C40.1058 6.90047 39.4506 6.43516 38.7207 6.12049C37.9908 5.80581 37.2026 5.64885 36.4078 5.65989C33.2639 5.65989 30.1953 7.99399 30.1953 12.3302C30.1953 16.6664 33.4651 18.9452 36.4581 18.9452ZM36.77 8.22036C38.6967 8.22036 40.6485 9.61378 40.6485 12.3805C40.6485 15.1472 38.7168 16.435 36.77 16.435C34.8233 16.435 32.9671 15.117 32.9671 12.3553C32.9671 9.59366 34.8384 8.22036 36.77 8.22036Z" fill="#333F48"/>
<path d="M27.1411 0C26.6074 0 26.0956 0.211995 25.7183 0.589347C25.3409 0.9667 25.1289 1.4785 25.1289 2.01216C25.1289 2.54581 25.3409 3.05761 25.7183 3.43497C26.0956 3.81232 26.6074 4.02431 27.1411 4.02431C27.6747 4.02431 28.1865 3.81232 28.5639 3.43497C28.9412 3.05761 29.1532 2.54581 29.1532 2.01216C29.1532 1.4785 28.9412 0.9667 28.5639 0.589347C28.1865 0.211995 27.6747 0 27.1411 0Z" fill="#333F48"/>
<path d="M27.1418 5.66016C26.7699 5.66148 26.4137 5.80977 26.1508 6.07269C25.8879 6.33561 25.7396 6.69182 25.7383 7.06364V17.5922C25.7526 17.9553 25.9065 18.2987 26.1681 18.5509C26.4296 18.803 26.7785 18.9444 27.1418 18.9454C27.5051 18.9444 27.8539 18.803 28.1154 18.5509C28.377 18.2987 28.531 17.9553 28.5452 17.5922V17.547V7.06364C28.5426 6.69222 28.3939 6.33677 28.1313 6.07414C27.8686 5.8115 27.5132 5.66279 27.1418 5.66016Z" fill="#333F48"/>
</g>
<defs>
<clipPath id="clip0_11984_215976">
<rect width="139.528" height="24" fill="white" transform="translate(0.234375)"/>
</clipPath>
</defs>
</svg>
