<svg width="20" height="20" viewBox="0 0 20 20" fill="none" xmlns="http://www.w3.org/2000/svg">
<path d="M6.875 16.25V18.75" stroke="#333541" stroke-linecap="round" stroke-linejoin="round"/>
<path d="M3.125 1.25H10.625C10.9565 1.25 11.2745 1.3817 11.5089 1.61612C11.7433 1.85054 11.875 2.16848 11.875 2.5V18.5938C11.875 18.6352 11.8585 18.6749 11.8292 18.7042C11.7999 18.7335 11.7602 18.75 11.7188 18.75H1.875V2.5C1.875 2.16848 2.0067 1.85054 2.24112 1.61612C2.47554 1.3817 2.79348 1.25 3.125 1.25V1.25Z" stroke="#333541" stroke-linecap="round" stroke-linejoin="round"/>
<path d="M12.5 7.5H16.875C17.2065 7.5 17.5245 7.6317 17.7589 7.86612C17.9933 8.10054 18.125 8.41848 18.125 8.75V18.75H11.875V8.125C11.875 7.95924 11.9408 7.80027 12.0581 7.68306C12.1753 7.56585 12.3342 7.5 12.5 7.5Z" stroke="#333541" stroke-linecap="round" stroke-linejoin="round"/>
<path d="M3.8313 16.8701C3.70185 16.887 3.57036 16.863 3.45527 16.8014C3.34018 16.7398 3.24727 16.6437 3.18958 16.5266C3.13189 16.4095 3.11232 16.2772 3.13361 16.1484C3.15491 16.0196 3.21599 15.9007 3.3083 15.8084C3.40061 15.7161 3.51951 15.655 3.6483 15.6337C3.7771 15.6124 3.90933 15.632 4.02644 15.6897C4.14354 15.7474 4.23965 15.8403 4.30126 15.9554C4.36287 16.0705 4.3869 16.202 4.36997 16.3314C4.3521 16.468 4.2896 16.5949 4.19219 16.6923C4.09477 16.7897 3.9679 16.8522 3.8313 16.8701Z" fill="#333541"/>
<path d="M3.8313 13.7451C3.70185 13.762 3.57036 13.738 3.45527 13.6764C3.34018 13.6148 3.24727 13.5187 3.18958 13.4016C3.13189 13.2845 3.11232 13.1522 3.13361 13.0234C3.15491 12.8946 3.21599 12.7757 3.3083 12.6834C3.40061 12.5911 3.51951 12.53 3.6483 12.5087C3.7771 12.4874 3.90933 12.507 4.02644 12.5647C4.14354 12.6224 4.23965 12.7153 4.30126 12.8304C4.36287 12.9455 4.3869 13.077 4.36997 13.2064C4.3521 13.343 4.2896 13.4699 4.19219 13.5673C4.09477 13.6647 3.9679 13.7272 3.8313 13.7451Z" fill="#333541"/>
<path d="M3.8313 10.6201C3.70185 10.637 3.57036 10.613 3.45527 10.5514C3.34018 10.4898 3.24727 10.3937 3.18958 10.2766C3.13189 10.1594 3.11232 10.0272 3.13361 9.89842C3.15491 9.76963 3.21599 9.65073 3.3083 9.55842C3.40061 9.46612 3.51951 9.40503 3.6483 9.38374C3.7771 9.36244 3.90933 9.38202 4.02644 9.4397C4.14354 9.49739 4.23965 9.5903 4.30126 9.70539C4.36287 9.82048 4.3869 9.95197 4.36997 10.0814C4.3521 10.218 4.2896 10.3449 4.19219 10.4423C4.09477 10.5397 3.9679 10.6022 3.8313 10.6201Z" fill="#333541"/>
<path d="M3.8313 7.49508C3.70185 7.51201 3.57036 7.48799 3.45527 7.42637C3.34018 7.36476 3.24727 7.26866 3.18958 7.15155C3.13189 7.03445 3.11232 6.90222 3.13361 6.77342C3.15491 6.64463 3.21599 6.52573 3.3083 6.43342C3.40061 6.34112 3.51951 6.28003 3.6483 6.25874C3.7771 6.23744 3.90933 6.25702 4.02644 6.3147C4.14354 6.37239 4.23965 6.4653 4.30126 6.58039C4.36287 6.69548 4.3869 6.82697 4.36997 6.95641C4.3521 7.09302 4.2896 7.21989 4.19219 7.3173C4.09477 7.41472 3.9679 7.47722 3.8313 7.49508Z" fill="#333541"/>
<path d="M3.8313 4.37009C3.70185 4.38702 3.57036 4.36299 3.45527 4.30138C3.34018 4.23977 3.24727 4.14367 3.18958 4.02656C3.13189 3.90945 3.11232 3.77722 3.13361 3.64843C3.15491 3.51963 3.21599 3.40073 3.3083 3.30843C3.40061 3.21612 3.51951 3.15503 3.6483 3.13374C3.7771 3.11244 3.90933 3.13202 4.02644 3.1897C4.14354 3.24739 4.23965 3.3403 4.30126 3.45539C4.36287 3.57048 4.3869 3.70198 4.36997 3.83142C4.3521 3.96802 4.2896 4.0949 4.19219 4.19231C4.09477 4.28973 3.9679 4.35223 3.8313 4.37009Z" fill="#333541"/>
<path d="M6.95629 13.7451C6.82685 13.762 6.69536 13.738 6.58027 13.6764C6.46518 13.6148 6.37227 13.5187 6.31458 13.4016C6.25689 13.2845 6.23732 13.1522 6.25861 13.0234C6.27991 12.8946 6.34099 12.7757 6.4333 12.6834C6.52561 12.5911 6.64451 12.53 6.7733 12.5087C6.9021 12.4874 7.03433 12.507 7.15143 12.5647C7.26854 12.6224 7.36464 12.7153 7.42625 12.8304C7.48786 12.9455 7.51189 13.077 7.49496 13.2064C7.4771 13.343 7.4146 13.4699 7.31718 13.5673C7.21977 13.6647 7.09289 13.7272 6.95629 13.7451Z" fill="#333541"/>
<path d="M6.95629 10.6201C6.82685 10.637 6.69536 10.613 6.58027 10.5514C6.46518 10.4898 6.37227 10.3937 6.31458 10.2766C6.25689 10.1594 6.23732 10.0272 6.25861 9.89842C6.27991 9.76963 6.34099 9.65073 6.4333 9.55842C6.52561 9.46612 6.64451 9.40503 6.7733 9.38374C6.9021 9.36244 7.03433 9.38202 7.15143 9.4397C7.26854 9.49739 7.36464 9.5903 7.42625 9.70539C7.48786 9.82048 7.51189 9.95197 7.49496 10.0814C7.4771 10.218 7.4146 10.3449 7.31718 10.4423C7.21977 10.5397 7.09289 10.6022 6.95629 10.6201Z" fill="#333541"/>
<path d="M6.95629 7.49508C6.82685 7.51201 6.69536 7.48799 6.58027 7.42637C6.46518 7.36476 6.37227 7.26866 6.31458 7.15155C6.25689 7.03445 6.23732 6.90222 6.25861 6.77342C6.27991 6.64463 6.34099 6.52573 6.4333 6.43342C6.52561 6.34112 6.64451 6.28003 6.7733 6.25874C6.9021 6.23744 7.03433 6.25702 7.15143 6.3147C7.26854 6.37239 7.36464 6.4653 7.42625 6.58039C7.48786 6.69548 7.51189 6.82697 7.49496 6.95641C7.4771 7.09302 7.4146 7.21989 7.31718 7.3173C7.21977 7.41472 7.09289 7.47722 6.95629 7.49508Z" fill="#333541"/>
<path d="M6.95629 4.37009C6.82685 4.38702 6.69536 4.36299 6.58027 4.30138C6.46518 4.23977 6.37227 4.14367 6.31458 4.02656C6.25689 3.90945 6.23732 3.77722 6.25861 3.64843C6.27991 3.51963 6.34099 3.40073 6.4333 3.30843C6.52561 3.21612 6.64451 3.15503 6.7733 3.13374C6.9021 3.11244 7.03433 3.13202 7.15143 3.1897C7.26854 3.24739 7.36464 3.3403 7.42625 3.45539C7.48786 3.57048 7.51189 3.70198 7.49496 3.83142C7.4771 3.96802 7.4146 4.0949 7.31718 4.19231C7.21977 4.28973 7.09289 4.35223 6.95629 4.37009Z" fill="#333541"/>
<path d="M10.0813 16.8701C9.95185 16.887 9.82036 16.863 9.70527 16.8014C9.59018 16.7398 9.49727 16.6437 9.43958 16.5266C9.38189 16.4095 9.36232 16.2772 9.38361 16.1484C9.40491 16.0196 9.46599 15.9007 9.5583 15.8084C9.65061 15.7161 9.76951 15.655 9.8983 15.6337C10.0271 15.6124 10.1593 15.632 10.2764 15.6897C10.3935 15.7474 10.4896 15.8403 10.5513 15.9554C10.6129 16.0705 10.6369 16.202 10.62 16.3314C10.6021 16.468 10.5396 16.5949 10.4422 16.6923C10.3448 16.7897 10.2179 16.8522 10.0813 16.8701Z" fill="#333541"/>
<path d="M10.0813 13.7451C9.95185 13.762 9.82036 13.738 9.70527 13.6764C9.59018 13.6148 9.49727 13.5187 9.43958 13.4016C9.38189 13.2845 9.36232 13.1522 9.38361 13.0234C9.40491 12.8946 9.46599 12.7757 9.5583 12.6834C9.65061 12.5911 9.76951 12.53 9.8983 12.5087C10.0271 12.4874 10.1593 12.507 10.2764 12.5647C10.3935 12.6224 10.4896 12.7153 10.5513 12.8304C10.6129 12.9455 10.6369 13.077 10.62 13.2064C10.6021 13.343 10.5396 13.4699 10.4422 13.5673C10.3448 13.6647 10.2179 13.7272 10.0813 13.7451Z" fill="#333541"/>
<path d="M10.0813 10.6201C9.95185 10.637 9.82036 10.613 9.70527 10.5514C9.59018 10.4898 9.49727 10.3937 9.43958 10.2766C9.38189 10.1594 9.36232 10.0272 9.38361 9.89842C9.40491 9.76963 9.46599 9.65073 9.5583 9.55842C9.65061 9.46612 9.76951 9.40503 9.8983 9.38374C10.0271 9.36244 10.1593 9.38202 10.2764 9.4397C10.3935 9.49739 10.4896 9.5903 10.5513 9.70539C10.6129 9.82048 10.6369 9.95197 10.62 10.0814C10.6021 10.218 10.5396 10.3449 10.4422 10.4423C10.3448 10.5397 10.2179 10.6022 10.0813 10.6201Z" fill="#333541"/>
<path d="M10.4428 7.31729C10.6861 7.07398 10.6851 6.6785 10.4406 6.43396C10.1961 6.18943 9.80057 6.18844 9.55726 6.43176C9.31394 6.67507 9.31493 7.07055 9.55947 7.31508C9.804 7.55962 10.1995 7.56061 10.4428 7.31729Z" fill="#333541"/>
<path d="M10.0813 4.37009C9.95185 4.38702 9.82036 4.36299 9.70527 4.30138C9.59018 4.23977 9.49727 4.14367 9.43958 4.02656C9.38189 3.90945 9.36232 3.77722 9.38361 3.64843C9.40491 3.51963 9.46599 3.40073 9.5583 3.30843C9.65061 3.21612 9.76951 3.15503 9.8983 3.13374C10.0271 3.11244 10.1593 3.13202 10.2764 3.1897C10.3935 3.24739 10.4896 3.3403 10.5513 3.45539C10.6129 3.57048 10.6369 3.70198 10.62 3.83142C10.6021 3.96802 10.5396 4.0949 10.4422 4.19231C10.3448 4.28973 10.2179 4.35223 10.0813 4.37009Z" fill="#333541"/>
<path d="M15.625 15.625C15.5014 15.625 15.3806 15.6617 15.2778 15.7303C15.175 15.799 15.0949 15.8966 15.0476 16.0108C15.0003 16.125 14.9879 16.2507 15.012 16.3719C15.0361 16.4932 15.0957 16.6045 15.1831 16.6919C15.2705 16.7794 15.3818 16.8389 15.5031 16.863C15.6243 16.8871 15.75 16.8747 15.8642 16.8274C15.9784 16.7801 16.076 16.7 16.1447 16.5972C16.2134 16.4945 16.25 16.3736 16.25 16.25C16.25 16.0842 16.1842 15.9253 16.0669 15.8081C15.9497 15.6908 15.7908 15.625 15.625 15.625Z" fill="#333541"/>
<path d="M15.625 12.5C15.5014 12.5 15.3806 12.5367 15.2778 12.6053C15.175 12.674 15.0949 12.7716 15.0476 12.8858C15.0003 13 14.9879 13.1257 15.012 13.2469C15.0361 13.3682 15.0957 13.4795 15.1831 13.5669C15.2705 13.6544 15.3818 13.7139 15.5031 13.738C15.6243 13.7621 15.75 13.7497 15.8642 13.7024C15.9784 13.6551 16.076 13.575 16.1447 13.4722C16.2134 13.3695 16.25 13.2486 16.25 13.125C16.25 12.9592 16.1842 12.8003 16.0669 12.6831C15.9497 12.5658 15.7908 12.5 15.625 12.5Z" fill="#333541"/>
<path d="M15.625 9.375C15.5014 9.375 15.3806 9.41166 15.2778 9.48033C15.175 9.54901 15.0949 9.64662 15.0476 9.76082C15.0003 9.87503 14.9879 10.0007 15.012 10.1219C15.0361 10.2432 15.0957 10.3545 15.1831 10.4419C15.2705 10.5294 15.3818 10.5889 15.5031 10.613C15.6243 10.6371 15.75 10.6247 15.8642 10.5774C15.9784 10.5301 16.076 10.45 16.1447 10.3472C16.2134 10.2445 16.25 10.1236 16.25 10C16.25 9.83424 16.1842 9.67527 16.0669 9.55806C15.9497 9.44085 15.7908 9.375 15.625 9.375Z" fill="#333541"/>
<path d="M13.125 15.625C13.0014 15.625 12.8806 15.6617 12.7778 15.7303C12.675 15.799 12.5949 15.8966 12.5476 16.0108C12.5003 16.125 12.4879 16.2507 12.512 16.3719C12.5361 16.4932 12.5957 16.6045 12.6831 16.6919C12.7705 16.7794 12.8818 16.8389 13.0031 16.863C13.1243 16.8871 13.25 16.8747 13.3642 16.8274C13.4784 16.7801 13.576 16.7 13.6447 16.5972C13.7134 16.4945 13.75 16.3736 13.75 16.25C13.75 16.0842 13.6842 15.9253 13.5669 15.8081C13.4497 15.6908 13.2908 15.625 13.125 15.625Z" fill="#333541"/>
<path d="M13.125 12.5C13.0014 12.5 12.8806 12.5367 12.7778 12.6053C12.675 12.674 12.5949 12.7716 12.5476 12.8858C12.5003 13 12.4879 13.1257 12.512 13.2469C12.5361 13.3682 12.5957 13.4795 12.6831 13.5669C12.7705 13.6544 12.8818 13.7139 13.0031 13.738C13.1243 13.7621 13.25 13.7497 13.3642 13.7024C13.4784 13.6551 13.576 13.575 13.6447 13.4722C13.7134 13.3695 13.75 13.2486 13.75 13.125C13.75 12.9592 13.6842 12.8003 13.5669 12.6831C13.4497 12.5658 13.2908 12.5 13.125 12.5Z" fill="#333541"/>
<path d="M13.125 9.375C13.0014 9.375 12.8806 9.41166 12.7778 9.48033C12.675 9.54901 12.5949 9.64662 12.5476 9.76082C12.5003 9.87503 12.4879 10.0007 12.512 10.1219C12.5361 10.2432 12.5957 10.3545 12.6831 10.4419C12.7705 10.5294 12.8818 10.5889 13.0031 10.613C13.1243 10.6371 13.25 10.6247 13.3642 10.5774C13.4784 10.5301 13.576 10.45 13.6447 10.3472C13.7134 10.2445 13.75 10.1236 13.75 10C13.75 9.83424 13.6842 9.67527 13.5669 9.55806C13.4497 9.44085 13.2908 9.375 13.125 9.375Z" fill="#333541"/>
</svg>
