<svg xmlns="http://www.w3.org/2000/svg" width="15.514" height="17.1" viewBox="0 0 15.514 17.1">
  <g id="Calendar_Header" data-name="Calendar Header" transform="translate(0 0)">
    <path id="Path_611" data-name="Path 611" d="M1346.35,74.5h1.26a.857.857,0,0,1,.1,0c.01,0,.05,0,.06.007-.01-.015-.07-.015-.02,0s.09.022.13.036c.02.007.1.024.11.043-.01-.017-.08-.041-.01,0a.191.191,0,0,1,.05.033c.03.019.07.043.1.064,0,0,.05.033.05.041-.04-.036-.05-.045-.03-.024s.02.017.03.027q.075.084.15.181c.05.069-.03-.062-.01-.009.01.019.03.039.04.058.02.039.04.079.06.122,0,.009.03.07.03.077s-.04-.1-.01-.024c.01.045.03.09.04.138s.01.076.02.113c.02.1-.01-.1,0,0a.256.256,0,0,0,.01.088V87.64c0,.053-.01.107-.01.162v-.026c.01,0,0,.062-.01.07a.3.3,0,0,1-.03.127.1.1,0,0,1-.01.053c0,.009-.01.017-.01.026-.01.043-.01.036.01-.024.01.016-.05.108-.06.127-.02.041-.04.079-.06.119s.01,0,.01-.019c0,.013-.03.043-.03.053-.03.033-.05.062-.08.093-.01.017-.03.033-.04.047s-.08.051-.03.027-.01.007-.02.016a.177.177,0,0,0-.04.03c-.04.026-.08.047-.11.069-.01,0-.04.026-.04.024s.07-.033,0-.007a.85.85,0,0,1-.13.047c-.01,0-.03.009-.04.013l-.03.007c-.03.007-.03.007,0,0,.01,0,.02,0,.03,0a.369.369,0,0,0-.05.007c-.02,0-.04,0-.06,0a.492.492,0,0,0-.05,0h-12.28c-.02,0-.04,0-.07,0-.01,0-.02,0-.03,0-.03,0-.02,0,.03.007-.07-.033-.15-.036-.22-.064,0,0-.08-.041-.02-.009s-.02-.01-.02-.013c-.04-.021-.07-.043-.11-.069-.02-.016-.04-.033-.06-.047-.04-.034.01.017.02.017-.02,0-.08-.077-.09-.093a.419.419,0,0,1-.07-.082c-.01-.009-.05-.052-.05-.064.01.016.02.028.03.043l-.03-.045c-.01-.024-.12-.2-.1-.222,0,0,.03.086.01.024-.01-.028-.02-.053-.03-.082-.01-.045-.02-.093-.03-.139v-.028h0v.028a.122.122,0,0,0-.01-.058V75.453a.132.132,0,0,1,.01-.06c0-.1-.02.076-.01.013.02-.095.05-.185.07-.277.01-.059-.04.094,0,.01a.111.111,0,0,1,.02-.052l.06-.122c.01-.016.02-.03.03-.047.04-.079-.04.052-.01.009s.06-.077.09-.113.05-.059.08-.086c.05-.056-.01,0-.01.007a.237.237,0,0,1,.04-.033c.03-.026.07-.052.1-.073s.03-.017.05-.026.03-.017.04-.024c-.01.007-.03.015-.04.021,0-.015.1-.043.12-.047a.638.638,0,0,1,.11-.03c.02-.007.08,0-.02,0a.212.212,0,0,0,.05-.007,1.029,1.029,0,0,1,.11,0h1.18a.41.41,0,0,0,.37-.43.417.417,0,0,0-.37-.43h-1.08a1.663,1.663,0,0,0-.78.174,1.775,1.775,0,0,0-.79.878,2.713,2.713,0,0,0-.17.981V87.658A1.887,1.887,0,0,0,1335,89.5a4.356,4.356,0,0,0,1.1.052h11.41a1.679,1.679,0,0,0,.79-.174,1.918,1.918,0,0,0,.95-1.727c.01-.43,0-.859,0-1.289V75.637a2.252,2.252,0,0,0-.29-1.177,1.714,1.714,0,0,0-.95-.765,2.293,2.293,0,0,0-.61-.053h-1.06a.41.41,0,0,0-.37.43.417.417,0,0,0,.37.43Z" transform="translate(-1333.74 -72.459)" fill="#fff"/>
    <path id="Path_612" data-name="Path 612" d="M1339.7,74.5h3.64a.435.435,0,0,0,0-.859h-3.64a.435.435,0,0,0,0,.859Z" transform="translate(-1333.74 -72.459)" fill="#fff"/>
    <path id="Path_613" data-name="Path 613" d="M1337.76,72.889V76a.407.407,0,0,0,.37.43.419.419,0,0,0,.38-.43V72.889a.378.378,0,1,0-.75,0Z" transform="translate(-1333.74 -72.459)" fill="#fff"/>
    <path id="Path_614" data-name="Path 614" d="M1334.13,79.475h14.13c.19,0,.38,0,.57,0h.03a.435.435,0,0,0,0-.859h-14.14c-.19,0-.38,0-.57,0h-.02a.435.435,0,0,0,0,.859Z" transform="translate(-1333.74 -72.459)" fill="#fff"/>
    <path id="Path_615" data-name="Path 615" d="M1337.29,76.467h1.67a.435.435,0,0,0,0-.859h-1.67a.435.435,0,0,0,0,.859Z" transform="translate(-1333.74 -72.459)" fill="#fff"/>
    <path id="Path_616" data-name="Path 616" d="M1344.44,72.922v3.115a.374.374,0,1,0,.74,0V72.922a.374.374,0,1,0-.74,0Z" transform="translate(-1333.74 -72.459)" fill="#fff"/>
    <path id="Path_617" data-name="Path 617" d="M1343.97,76.467h1.67a.435.435,0,0,0,0-.859h-1.67a.435.435,0,0,0,0,.859Z" transform="translate(-1333.74 -72.459)" fill="#fff"/>
    <path id="Path_618" data-name="Path 618" d="M1336.66,82.74h1.08a.41.41,0,0,0,.37-.43.417.417,0,0,0-.37-.43h-1.08a.4.4,0,0,0-.37.43A.41.41,0,0,0,1336.66,82.74Z" transform="translate(-1333.74 -72.459)" fill="#fff"/>
    <path id="Path_619" data-name="Path 619" d="M1340.91,82.74h1.07a.433.433,0,0,0,0-.859h-1.07a.4.4,0,0,0-.37.43A.41.41,0,0,0,1340.91,82.74Z" transform="translate(-1333.74 -72.459)" fill="#fff"/>
    <path id="Path_620" data-name="Path 620" d="M1345.16,82.74h1.07a.435.435,0,0,0,0-.859h-1.07a.4.4,0,0,0-.37.43A.41.41,0,0,0,1345.16,82.74Z" transform="translate(-1333.74 -72.459)" fill="#fff"/>
    <path id="Path_621" data-name="Path 621" d="M1336.66,86.263h1.08a.41.41,0,0,0,.37-.43.417.417,0,0,0-.37-.43h-1.08a.4.4,0,0,0-.37.43A.41.41,0,0,0,1336.66,86.263Z" transform="translate(-1333.74 -72.459)" fill="#fff"/>
    <path id="Path_622" data-name="Path 622" d="M1340.91,86.263h1.07a.433.433,0,0,0,0-.859h-1.07a.4.4,0,0,0-.37.43A.41.41,0,0,0,1340.91,86.263Z" transform="translate(-1333.74 -72.459)" fill="#fff"/>
  </g>
</svg>
