<svg xmlns="http://www.w3.org/2000/svg" width="14.909" height="19.617" viewBox="0 0 14.909 19.617">
  <g id="Icon_ionic-ios-document" data-name="Icon ionic-ios-document" transform="translate(-7.313 -3.938)">
    <path id="Path_1551" data-name="Path 1551" d="M21.533,8.795H26a.243.243,0,0,0,.245-.245h0a1.451,1.451,0,0,0-.525-1.123L21.975,4.307a1.575,1.575,0,0,0-1.01-.363h0a.362.362,0,0,0-.363.363V7.863A.931.931,0,0,0,21.533,8.795Z" transform="translate(-4.02 -0.002)" fill="#009c9d"/>
    <path id="Path_1552" data-name="Path 1552" d="M15.307,7.861V3.938H8.882A1.574,1.574,0,0,0,7.313,5.507V21.985a1.574,1.574,0,0,0,1.569,1.569h11.77a1.574,1.574,0,0,0,1.569-1.569V10.068H17.514A2.21,2.21,0,0,1,15.307,7.861Z" fill="#009c9d"/>
  </g>
</svg>
