<svg xmlns="http://www.w3.org/2000/svg" width="107.478" height="31.511" viewBox="0 0 107.478 31.511">
  <g id="IELTS_Logo" data-name="IELTS Logo" transform="translate(0 0)">
    <path id="Path_600" data-name="Path 600" d="M115.677,15.2h1v2.757h.689V15.2h.992v-.6h-2.681Zm4.152-.6H118.8v3.357h.652V15.252l.689,2.706h.71l.681-2.706v2.706h.651V14.6h-1.029l-.66,2.555Z" transform="translate(-14.708 -13.846)" fill-rule="evenodd"/>
    <path id="Path_601" data-name="Path 601" d="M105.788,39.751c-3.66,0-5.572-1.741-5.656-5.148H92.773c.458,7.225,4.492,10.754,12.267,10.754,8.4,0,13.015-3.613,13.015-9.424a7.792,7.792,0,0,0-2.95-6.31c-1.411-1.128-3.8-1.9-7.094-2.972l-.306-.1c-.535-.175-1.038-.336-1.511-.487h0c-3.687-1.179-5.516-1.764-5.516-3.75,0-1.494,1.576-2.7,4.156-2.7,3.077,0,4.694,1.288,5.031,4.07h7.19c0-5.937-4.45-9.839-11.725-9.839-7.484,0-11.931,3.738-11.935,9.34,0,3.7,2.244,6.558,6.568,8.262,2.276.91,4.292,1.5,5.955,1.991a22.9,22.9,0,0,1,3.609,1.248,2.282,2.282,0,0,1,1.165,2.115C110.693,38.631,108.991,39.751,105.788,39.751ZM22.361,14.677H14.708V44.526h7.653Zm3.152,0H48.631v6.1H33.166v5.48H48.589v5.979H33.166v6.189H48.715v6.1h-23.2Zm26.072,0h7.691V38.048H73.333v6.478H51.585Zm16.053,6.059H76.2v23.79h7.648V20.736h8.611V14.677H67.638Z" transform="translate(-14.708 -13.846)" fill="#e31837" fill-rule="evenodd"/>
  </g>
</svg>
